/* XPM */
static const char *QVTKWidget_image[]={
"22 22 15 1",
". c none",
"l c #004000",
"g c #007100",
"f c #007500",
"m c #007900",
"a c #007d00",
"c c #008100",
"e c #008500",
"k c #009900",
"b c #00a500",
"# c #00b200",
"h c #00c200",
"d c #00c600",
"j c #00ca00",
"i c #00f600",
"......................",
"......................",
"......................",
"......................",
"......................",
"........#aaaaab.......",
".......ccaaaaacccd....",
"......cecaaaaaccff....",
"....ecacaaeeaecgfg....",
"....dhdhdiaaaagfgf....",
"....jdhdhdjjjkgggg....",
"....lhdhdjjjjjgfgf....",
".....hdhdjjjjjgfgf....",
".....ddddjjjjjfgfg....",
".....hdhdjjjjjgfg.....",
".....djdjdhhdhfff.....",
"......djdhddddff......",
"........jdhdddf.......",
"............ddm.......",
"......................",
"......................",
"......................"};
